<svg xmlns="http://www.w3.org/2000/svg" viewBox="0 0 64 64" width="200" height="200">
	<style>
		tspan { white-space:pre }
		.shp0 { fill: #76c2af } 
		.shp1 { fill: #231f20 } 
		.shp2 { fill: #ffffff } 
		.shp3 { fill: #e0e0d1 } 
		.shp4 { fill: #4f5d73 } 
	</style>
	<g id="Layer_1">
		<g id="Layer">
			<path id="Layer" class="shp0" d="M32 64C14.3 64 0 49.7 0 32C0 14.3 14.3 0 32 0C49.7 0 64 14.3 64 32C64 49.7 49.7 64 32 64Z" />
		</g>
		<g id="Layer" style="opacity: 0.2">
			<path id="Layer" class="shp1" d="M44 52C44 53.1 43.1 54 42 54L22 54C20.9 54 20 53.1 20 52L20 52C20 50.9 20.9 50 22 50L42 50C43.1 50 44 50.9 44 52L44 52Z" />
		</g>
		<g id="Layer">
			<path id="Layer" class="shp2" d="M44 50C44 51.1 43.1 52 42 52L22 52C20.9 52 20 51.1 20 50L20 50C20 48.9 20.9 48 22 48L42 48C43.1 48 44 48.9 44 50L44 50Z" />
		</g>
		<g id="Layer">
			<path id="Layer" class="shp3" d="M37 42C37 42 36 48 40 48C40 48 20 48 24 48C28 48 27 42 27 42L37 42Z" />
		</g>
		<g id="Layer" style="opacity: 0.2">
			<g id="Layer">
				<path id="Layer" class="shp1" d="M52 40C52 42.2 50.2 44 48 44L16 44C13.8 44 12 42.2 12 40L12 18C12 15.8 13.8 14 16 14L48 14C50.2 14 52 15.8 52 18L52 40Z" />
			</g>
		</g>
		<g id="Layer">
			<g id="Layer">
				<path id="Layer" class="shp4" d="M16 40.5C14.6 40.5 13.5 39.4 13.5 38L13.5 16C13.5 14.6 14.6 13.5 16 13.5L48 13.5C49.4 13.5 50.5 14.6 50.5 16L50.5 38C50.5 39.4 49.4 40.5 48 40.5L16 40.5Z" />
			</g>
			<g id="Layer">
				<path id="Layer" fill-rule="evenodd" class="shp2" d="M48 12C50.2 12 52 13.8 52 16L52 38C52 40.2 50.2 42 48 42L16 42C13.8 42 12 40.2 12 38L12 16C12 13.8 13.8 12 16 12L48 12ZM16 15C15.4 15 15 15.4 15 16L15 38C15 38.6 15.4 39 16 39L48 39C48.6 39 49 38.6 49 38L49 16C49 15.4 48.6 15 48 15L16 15Z" />
			</g>
		</g>
		<g id="Layer" style="opacity: 0.2">
			<path id="Layer" class="shp2" d="M50 39.9L50 13.9L26.2 13.9L41.2 39.9L50 39.9Z" />
		</g>
	</g>
	<g id="Layer_2">
	</g>
</svg>